<mxfile host="Electron" modified="2023-11-28T01:35:01.395Z" agent="Mozilla/5.0 (X11; Linux x86_64) AppleWebKit/537.36 (KHTML, like Gecko) draw.io/22.1.2 Chrome/114.0.5735.289 Electron/25.9.4 Safari/537.36" etag="aJy1p0UaPri5mMuYGPKB" version="22.1.2" type="device" pages="2">
  <diagram id="nt6i8Z5bzDMx0RMC8nMT" name="Program Objects">
    <mxGraphModel dx="1366" dy="793" grid="1" gridSize="10" guides="1" tooltips="1" connect="1" arrows="1" fold="1" page="1" pageScale="1" pageWidth="827" pageHeight="1169" math="0" shadow="0">
      <root>
        <mxCell id="0" />
        <mxCell id="1" parent="0" />
        <mxCell id="HZTEf2HtpRJm5xRgROly-12" value="center" style="rounded=0;orthogonalLoop=1;jettySize=auto;html=1;entryX=0.5;entryY=0;entryDx=0;entryDy=0;" parent="1" edge="1">
          <mxGeometry relative="1" as="geometry">
            <mxPoint x="525.0340136054424" y="-354" as="sourcePoint" />
            <Array as="points" />
          </mxGeometry>
        </mxCell>
        <mxCell id="HZTEf2HtpRJm5xRgROly-16" style="rounded=0;orthogonalLoop=1;jettySize=auto;html=1;entryX=0.5;entryY=0;entryDx=0;entryDy=0;" parent="1" edge="1">
          <mxGeometry relative="1" as="geometry">
            <mxPoint x="636.2944162436547" y="-354" as="sourcePoint" />
          </mxGeometry>
        </mxCell>
        <mxCell id="HZTEf2HtpRJm5xRgROly-17" value="top" style="edgeLabel;html=1;align=center;verticalAlign=middle;resizable=0;points=[];" parent="HZTEf2HtpRJm5xRgROly-16" vertex="1" connectable="0">
          <mxGeometry x="-0.1296" y="2" relative="1" as="geometry">
            <mxPoint as="offset" />
          </mxGeometry>
        </mxCell>
        <mxCell id="63r6j5PNiwpvzs9c38wY-28" value="gameplayScene" style="rounded=0;orthogonalLoop=1;jettySize=auto;html=1;entryX=0.5;entryY=0;entryDx=0;entryDy=0;" parent="1" source="63r6j5PNiwpvzs9c38wY-1" target="hZkSFNa1AV5M2KssNxJd-1" edge="1">
          <mxGeometry relative="1" as="geometry" />
        </mxCell>
        <mxCell id="hZkSFNa1AV5M2KssNxJd-6" value="activeGame" style="rounded=0;orthogonalLoop=1;jettySize=auto;html=1;entryX=0.5;entryY=0;entryDx=0;entryDy=0;" parent="1" source="63r6j5PNiwpvzs9c38wY-1" target="63r6j5PNiwpvzs9c38wY-9" edge="1">
          <mxGeometry relative="1" as="geometry" />
        </mxCell>
        <mxCell id="63r6j5PNiwpvzs9c38wY-1" value="MinesweeperGame extends Application" style="swimlane;fontStyle=1;align=center;verticalAlign=top;childLayout=stackLayout;horizontal=1;startSize=26;horizontalStack=0;resizeParent=1;resizeParentMax=0;resizeLast=0;collapsible=1;marginBottom=0;whiteSpace=wrap;html=1;" parent="1" vertex="1">
          <mxGeometry x="390" y="10" width="260" height="144" as="geometry" />
        </mxCell>
        <mxCell id="63r6j5PNiwpvzs9c38wY-2" value="Variables in start():&lt;br&gt;GameContainer activeGame&lt;br&gt;ZoomableScrollPane gameBoardWrapper&lt;br&gt;BorderPane activeGameDisplay&lt;br&gt;Scene gameplayScene" style="text;strokeColor=none;fillColor=none;align=left;verticalAlign=top;spacingLeft=4;spacingRight=4;overflow=hidden;rotatable=0;points=[[0,0.5],[1,0.5]];portConstraint=eastwest;whiteSpace=wrap;html=1;" parent="63r6j5PNiwpvzs9c38wY-1" vertex="1">
          <mxGeometry y="26" width="260" height="84" as="geometry" />
        </mxCell>
        <mxCell id="63r6j5PNiwpvzs9c38wY-3" value="" style="line;strokeWidth=1;fillColor=none;align=left;verticalAlign=middle;spacingTop=-1;spacingLeft=3;spacingRight=3;rotatable=0;labelPosition=right;points=[];portConstraint=eastwest;strokeColor=inherit;" parent="63r6j5PNiwpvzs9c38wY-1" vertex="1">
          <mxGeometry y="110" width="260" height="8" as="geometry" />
        </mxCell>
        <mxCell id="63r6j5PNiwpvzs9c38wY-4" value="+ start(Stage primaryStage): void" style="text;strokeColor=none;fillColor=none;align=left;verticalAlign=top;spacingLeft=4;spacingRight=4;overflow=hidden;rotatable=0;points=[[0,0.5],[1,0.5]];portConstraint=eastwest;whiteSpace=wrap;html=1;" parent="63r6j5PNiwpvzs9c38wY-1" vertex="1">
          <mxGeometry y="118" width="260" height="26" as="geometry" />
        </mxCell>
        <mxCell id="63r6j5PNiwpvzs9c38wY-26" value="target" style="rounded=0;orthogonalLoop=1;jettySize=auto;html=1;entryX=0.5;entryY=0;entryDx=0;entryDy=0;" parent="1" source="63r6j5PNiwpvzs9c38wY-5" target="63r6j5PNiwpvzs9c38wY-9" edge="1">
          <mxGeometry relative="1" as="geometry" />
        </mxCell>
        <mxCell id="63r6j5PNiwpvzs9c38wY-5" value="ZoomableScrollPane extends ScrollPane" style="swimlane;fontStyle=1;align=center;verticalAlign=top;childLayout=stackLayout;horizontal=1;startSize=26;horizontalStack=0;resizeParent=1;resizeParentMax=0;resizeLast=0;collapsible=1;marginBottom=0;whiteSpace=wrap;html=1;" parent="1" vertex="1">
          <mxGeometry x="40" y="270" width="380" height="78" as="geometry" />
        </mxCell>
        <mxCell id="63r6j5PNiwpvzs9c38wY-6" value="- Node target&lt;br&gt;- Node zoomNode" style="text;strokeColor=none;fillColor=none;align=left;verticalAlign=top;spacingLeft=4;spacingRight=4;overflow=hidden;rotatable=0;points=[[0,0.5],[1,0.5]];portConstraint=eastwest;whiteSpace=wrap;html=1;" parent="63r6j5PNiwpvzs9c38wY-5" vertex="1">
          <mxGeometry y="26" width="380" height="44" as="geometry" />
        </mxCell>
        <mxCell id="63r6j5PNiwpvzs9c38wY-7" value="" style="line;strokeWidth=1;fillColor=none;align=left;verticalAlign=middle;spacingTop=-1;spacingLeft=3;spacingRight=3;rotatable=0;labelPosition=right;points=[];portConstraint=eastwest;strokeColor=inherit;" parent="63r6j5PNiwpvzs9c38wY-5" vertex="1">
          <mxGeometry y="70" width="380" height="8" as="geometry" />
        </mxCell>
        <mxCell id="63r6j5PNiwpvzs9c38wY-25" value="gameTiles / children" style="rounded=0;orthogonalLoop=1;jettySize=auto;html=1;entryX=0.5;entryY=0;entryDx=0;entryDy=0;" parent="1" source="63r6j5PNiwpvzs9c38wY-9" target="63r6j5PNiwpvzs9c38wY-13" edge="1">
          <mxGeometry relative="1" as="geometry" />
        </mxCell>
        <mxCell id="hZkSFNa1AV5M2KssNxJd-7" value="thisDataManager" style="rounded=0;orthogonalLoop=1;jettySize=auto;html=1;entryX=0.5;entryY=0;entryDx=0;entryDy=0;" parent="1" source="63r6j5PNiwpvzs9c38wY-9" target="63r6j5PNiwpvzs9c38wY-21" edge="1">
          <mxGeometry relative="1" as="geometry" />
        </mxCell>
        <mxCell id="63r6j5PNiwpvzs9c38wY-9" value="GameContainer extends GridPane" style="swimlane;fontStyle=1;align=center;verticalAlign=top;childLayout=stackLayout;horizontal=1;startSize=26;horizontalStack=0;resizeParent=1;resizeParentMax=0;resizeLast=0;collapsible=1;marginBottom=0;whiteSpace=wrap;html=1;" parent="1" vertex="1">
          <mxGeometry x="372.5" y="370" width="330" height="210" as="geometry" />
        </mxCell>
        <mxCell id="63r6j5PNiwpvzs9c38wY-10" value="- int totalColumns&lt;br&gt;- int totalRows&lt;br&gt;- GameDataManager thisDataManager&lt;br&gt;- ArrayList&amp;lt;Label&amp;gt; gameTiles&lt;br&gt;- static double CELL_SIZE" style="text;strokeColor=none;fillColor=none;align=left;verticalAlign=top;spacingLeft=4;spacingRight=4;overflow=hidden;rotatable=0;points=[[0,0.5],[1,0.5]];portConstraint=eastwest;whiteSpace=wrap;html=1;" parent="63r6j5PNiwpvzs9c38wY-9" vertex="1">
          <mxGeometry y="26" width="330" height="104" as="geometry" />
        </mxCell>
        <mxCell id="63r6j5PNiwpvzs9c38wY-11" value="" style="line;strokeWidth=1;fillColor=none;align=left;verticalAlign=middle;spacingTop=-1;spacingLeft=3;spacingRight=3;rotatable=0;labelPosition=right;points=[];portConstraint=eastwest;strokeColor=inherit;" parent="63r6j5PNiwpvzs9c38wY-9" vertex="1">
          <mxGeometry y="130" width="330" height="8" as="geometry" />
        </mxCell>
        <mxCell id="63r6j5PNiwpvzs9c38wY-12" value="- handleInteractionEvent(GameCellInteractionEvent e): void&lt;br&gt;- static gameLabelFactory(): Label&lt;br&gt;+ addEventFilter(EventType&amp;lt;T&amp;gt; eventType, EventHandler&amp;lt;? super T&amp;gt; eventFilter): void" style="text;strokeColor=none;fillColor=none;align=left;verticalAlign=top;spacingLeft=4;spacingRight=4;overflow=hidden;rotatable=0;points=[[0,0.5],[1,0.5]];portConstraint=eastwest;whiteSpace=wrap;html=1;" parent="63r6j5PNiwpvzs9c38wY-9" vertex="1">
          <mxGeometry y="138" width="330" height="72" as="geometry" />
        </mxCell>
        <mxCell id="hZkSFNa1AV5M2KssNxJd-23" value="fires" style="rounded=0;orthogonalLoop=1;jettySize=auto;html=1;exitX=0.25;exitY=0;exitDx=0;exitDy=0;" parent="1" source="63r6j5PNiwpvzs9c38wY-13" target="hZkSFNa1AV5M2KssNxJd-8" edge="1">
          <mxGeometry relative="1" as="geometry" />
        </mxCell>
        <mxCell id="63r6j5PNiwpvzs9c38wY-13" value="Label" style="swimlane;fontStyle=1;align=center;verticalAlign=top;childLayout=stackLayout;horizontal=1;startSize=26;horizontalStack=0;resizeParent=1;resizeParentMax=0;resizeLast=0;collapsible=1;marginBottom=0;whiteSpace=wrap;html=1;" parent="1" vertex="1">
          <mxGeometry x="10" y="750" width="370" height="120" as="geometry" />
        </mxCell>
        <mxCell id="63r6j5PNiwpvzs9c38wY-14" value="- onMouseClickedProperty" style="text;strokeColor=none;fillColor=none;align=left;verticalAlign=top;spacingLeft=4;spacingRight=4;overflow=hidden;rotatable=0;points=[[0,0.5],[1,0.5]];portConstraint=eastwest;whiteSpace=wrap;html=1;" parent="63r6j5PNiwpvzs9c38wY-13" vertex="1">
          <mxGeometry y="26" width="370" height="26" as="geometry" />
        </mxCell>
        <mxCell id="63r6j5PNiwpvzs9c38wY-15" value="" style="line;strokeWidth=1;fillColor=none;align=left;verticalAlign=middle;spacingTop=-1;spacingLeft=3;spacingRight=3;rotatable=0;labelPosition=right;points=[];portConstraint=eastwest;strokeColor=inherit;" parent="63r6j5PNiwpvzs9c38wY-13" vertex="1">
          <mxGeometry y="52" width="370" height="8" as="geometry" />
        </mxCell>
        <mxCell id="63r6j5PNiwpvzs9c38wY-16" value="+ fireEvent(Event e): void&lt;br&gt;+ setOnMouseClicked(EventHandler &amp;lt;? super MouseEvent&amp;gt;): void" style="text;strokeColor=none;fillColor=none;align=left;verticalAlign=top;spacingLeft=4;spacingRight=4;overflow=hidden;rotatable=0;points=[[0,0.5],[1,0.5]];portConstraint=eastwest;whiteSpace=wrap;html=1;" parent="63r6j5PNiwpvzs9c38wY-13" vertex="1">
          <mxGeometry y="60" width="370" height="60" as="geometry" />
        </mxCell>
        <mxCell id="hZkSFNa1AV5M2KssNxJd-16" value="[] cellData" style="rounded=0;orthogonalLoop=1;jettySize=auto;html=1;entryX=0.5;entryY=0;entryDx=0;entryDy=0;" parent="1" source="63r6j5PNiwpvzs9c38wY-21" target="hZkSFNa1AV5M2KssNxJd-12" edge="1">
          <mxGeometry relative="1" as="geometry" />
        </mxCell>
        <mxCell id="63r6j5PNiwpvzs9c38wY-21" value="GameDataManager" style="swimlane;fontStyle=1;align=center;verticalAlign=top;childLayout=stackLayout;horizontal=1;startSize=26;horizontalStack=0;resizeParent=1;resizeParentMax=0;resizeLast=0;collapsible=1;marginBottom=0;whiteSpace=wrap;html=1;" parent="1" vertex="1">
          <mxGeometry x="450" y="640" width="370" height="300" as="geometry" />
        </mxCell>
        <mxCell id="63r6j5PNiwpvzs9c38wY-22" value="- int totalColumns&lt;br&gt;- int totalRows&lt;br&gt;- ArrayList&amp;lt;Integer&amp;gt; mineLocations&lt;br&gt;- GameCell[] cellData" style="text;strokeColor=none;fillColor=none;align=left;verticalAlign=top;spacingLeft=4;spacingRight=4;overflow=hidden;rotatable=0;points=[[0,0.5],[1,0.5]];portConstraint=eastwest;whiteSpace=wrap;html=1;" parent="63r6j5PNiwpvzs9c38wY-21" vertex="1">
          <mxGeometry y="26" width="370" height="84" as="geometry" />
        </mxCell>
        <mxCell id="63r6j5PNiwpvzs9c38wY-23" value="" style="line;strokeWidth=1;fillColor=none;align=left;verticalAlign=middle;spacingTop=-1;spacingLeft=3;spacingRight=3;rotatable=0;labelPosition=right;points=[];portConstraint=eastwest;strokeColor=inherit;" parent="63r6j5PNiwpvzs9c38wY-21" vertex="1">
          <mxGeometry y="110" width="370" height="8" as="geometry" />
        </mxCell>
        <mxCell id="63r6j5PNiwpvzs9c38wY-24" value="- getNeighborIndices(int activeCellIndex): ArrayList&amp;lt;Integer&amp;gt;&lt;br&gt;- processNeighborMines(ArrayList&amp;lt;Integer&amp;gt; neighborCells): int&lt;br&gt;+ checkRevealedCells(): int&lt;br&gt;+ flagEvent(int cellIndex): String&lt;br&gt;+ revealCell(int cellIndex): String&lt;br&gt;+ isMine(int cellIndex): boolean&lt;br&gt;+ isFlagged(int cellIndex): boolean&lt;br&gt;+ isRevealed(int cellIndex): boolean&lt;br&gt;+ getAdjacentMines(int cellIndex): int&lt;br&gt;+ main(String[] args): void (Unit test method)" style="text;strokeColor=none;fillColor=none;align=left;verticalAlign=top;spacingLeft=4;spacingRight=4;overflow=hidden;rotatable=0;points=[[0,0.5],[1,0.5]];portConstraint=eastwest;whiteSpace=wrap;html=1;" parent="63r6j5PNiwpvzs9c38wY-21" vertex="1">
          <mxGeometry y="118" width="370" height="182" as="geometry" />
        </mxCell>
        <mxCell id="hZkSFNa1AV5M2KssNxJd-5" value="centerProperty" style="rounded=0;orthogonalLoop=1;jettySize=auto;html=1;entryX=0.5;entryY=0;entryDx=0;entryDy=0;" parent="1" source="hZkSFNa1AV5M2KssNxJd-1" target="63r6j5PNiwpvzs9c38wY-5" edge="1">
          <mxGeometry relative="1" as="geometry" />
        </mxCell>
        <mxCell id="hZkSFNa1AV5M2KssNxJd-1" value="BorderPane" style="swimlane;fontStyle=1;align=center;verticalAlign=top;childLayout=stackLayout;horizontal=1;startSize=26;horizontalStack=0;resizeParent=1;resizeParentMax=0;resizeLast=0;collapsible=1;marginBottom=0;whiteSpace=wrap;html=1;" parent="1" vertex="1">
          <mxGeometry x="115" y="140" width="230" height="94" as="geometry" />
        </mxCell>
        <mxCell id="hZkSFNa1AV5M2KssNxJd-2" value="+ ObjectProperty&amp;lt;Node&amp;gt; centerProperty&lt;br&gt;+ ObjectProperty&amp;lt;Node&amp;gt; topProperty" style="text;strokeColor=none;fillColor=none;align=left;verticalAlign=top;spacingLeft=4;spacingRight=4;overflow=hidden;rotatable=0;points=[[0,0.5],[1,0.5]];portConstraint=eastwest;whiteSpace=wrap;html=1;" parent="hZkSFNa1AV5M2KssNxJd-1" vertex="1">
          <mxGeometry y="26" width="230" height="34" as="geometry" />
        </mxCell>
        <mxCell id="hZkSFNa1AV5M2KssNxJd-3" value="" style="line;strokeWidth=1;fillColor=none;align=left;verticalAlign=middle;spacingTop=-1;spacingLeft=3;spacingRight=3;rotatable=0;labelPosition=right;points=[];portConstraint=eastwest;strokeColor=inherit;" parent="hZkSFNa1AV5M2KssNxJd-1" vertex="1">
          <mxGeometry y="60" width="230" height="8" as="geometry" />
        </mxCell>
        <mxCell id="hZkSFNa1AV5M2KssNxJd-4" value="+ setCenter(Node value): void" style="text;strokeColor=none;fillColor=none;align=left;verticalAlign=top;spacingLeft=4;spacingRight=4;overflow=hidden;rotatable=0;points=[[0,0.5],[1,0.5]];portConstraint=eastwest;whiteSpace=wrap;html=1;" parent="hZkSFNa1AV5M2KssNxJd-1" vertex="1">
          <mxGeometry y="68" width="230" height="26" as="geometry" />
        </mxCell>
        <mxCell id="hZkSFNa1AV5M2KssNxJd-24" value="catches" style="rounded=0;orthogonalLoop=1;jettySize=auto;html=1;exitX=0.75;exitY=0;exitDx=0;exitDy=0;entryX=0;entryY=0.5;entryDx=0;entryDy=0;" parent="1" source="hZkSFNa1AV5M2KssNxJd-8" target="63r6j5PNiwpvzs9c38wY-10" edge="1">
          <mxGeometry relative="1" as="geometry" />
        </mxCell>
        <mxCell id="hZkSFNa1AV5M2KssNxJd-8" value="GameCellInteractionEvent extends Event" style="swimlane;fontStyle=1;align=center;verticalAlign=top;childLayout=stackLayout;horizontal=1;startSize=26;horizontalStack=0;resizeParent=1;resizeParentMax=0;resizeLast=0;collapsible=1;marginBottom=0;whiteSpace=wrap;html=1;" parent="1" vertex="1">
          <mxGeometry x="10" y="500" width="300" height="130" as="geometry" />
        </mxCell>
        <mxCell id="hZkSFNa1AV5M2KssNxJd-9" value="+ static EventType&amp;lt;GameCellInteractionEvent&amp;gt; ANY&lt;br&gt;- Point cellLocation&lt;br&gt;- MouseEvent triggerEvent" style="text;strokeColor=none;fillColor=none;align=left;verticalAlign=top;spacingLeft=4;spacingRight=4;overflow=hidden;rotatable=0;points=[[0,0.5],[1,0.5]];portConstraint=eastwest;whiteSpace=wrap;html=1;" parent="hZkSFNa1AV5M2KssNxJd-8" vertex="1">
          <mxGeometry y="26" width="300" height="54" as="geometry" />
        </mxCell>
        <mxCell id="hZkSFNa1AV5M2KssNxJd-10" value="" style="line;strokeWidth=1;fillColor=none;align=left;verticalAlign=middle;spacingTop=-1;spacingLeft=3;spacingRight=3;rotatable=0;labelPosition=right;points=[];portConstraint=eastwest;strokeColor=inherit;" parent="hZkSFNa1AV5M2KssNxJd-8" vertex="1">
          <mxGeometry y="80" width="300" height="8" as="geometry" />
        </mxCell>
        <mxCell id="hZkSFNa1AV5M2KssNxJd-11" value="+ getLocation(): Point&lt;br&gt;+ getTrigger(): MouseEvent" style="text;strokeColor=none;fillColor=none;align=left;verticalAlign=top;spacingLeft=4;spacingRight=4;overflow=hidden;rotatable=0;points=[[0,0.5],[1,0.5]];portConstraint=eastwest;whiteSpace=wrap;html=1;" parent="hZkSFNa1AV5M2KssNxJd-8" vertex="1">
          <mxGeometry y="88" width="300" height="42" as="geometry" />
        </mxCell>
        <mxCell id="hZkSFNa1AV5M2KssNxJd-12" value="private GameCell" style="swimlane;fontStyle=1;align=center;verticalAlign=top;childLayout=stackLayout;horizontal=1;startSize=26;horizontalStack=0;resizeParent=1;resizeParentMax=0;resizeLast=0;collapsible=1;marginBottom=0;whiteSpace=wrap;html=1;" parent="1" vertex="1">
          <mxGeometry x="527.5" y="1010" width="215" height="134" as="geometry" />
        </mxCell>
        <mxCell id="hZkSFNa1AV5M2KssNxJd-13" value="- boolean revealed&lt;br&gt;- boolean hasMine&lt;br&gt;- boolean flagged&lt;br&gt;- int nearbyMines" style="text;strokeColor=none;fillColor=none;align=left;verticalAlign=top;spacingLeft=4;spacingRight=4;overflow=hidden;rotatable=0;points=[[0,0.5],[1,0.5]];portConstraint=eastwest;whiteSpace=wrap;html=1;" parent="hZkSFNa1AV5M2KssNxJd-12" vertex="1">
          <mxGeometry y="26" width="215" height="74" as="geometry" />
        </mxCell>
        <mxCell id="hZkSFNa1AV5M2KssNxJd-14" value="" style="line;strokeWidth=1;fillColor=none;align=left;verticalAlign=middle;spacingTop=-1;spacingLeft=3;spacingRight=3;rotatable=0;labelPosition=right;points=[];portConstraint=eastwest;strokeColor=inherit;" parent="hZkSFNa1AV5M2KssNxJd-12" vertex="1">
          <mxGeometry y="100" width="215" height="8" as="geometry" />
        </mxCell>
        <mxCell id="hZkSFNa1AV5M2KssNxJd-15" value="- getLabel(): String" style="text;strokeColor=none;fillColor=none;align=left;verticalAlign=top;spacingLeft=4;spacingRight=4;overflow=hidden;rotatable=0;points=[[0,0.5],[1,0.5]];portConstraint=eastwest;whiteSpace=wrap;html=1;" parent="hZkSFNa1AV5M2KssNxJd-12" vertex="1">
          <mxGeometry y="108" width="215" height="26" as="geometry" />
        </mxCell>
        <mxCell id="hZkSFNa1AV5M2KssNxJd-30" style="rounded=0;orthogonalLoop=1;jettySize=auto;html=1;entryX=0.75;entryY=0;entryDx=0;entryDy=0;" parent="1" source="hZkSFNa1AV5M2KssNxJd-25" target="63r6j5PNiwpvzs9c38wY-9" edge="1">
          <mxGeometry relative="1" as="geometry" />
        </mxCell>
        <mxCell id="hZkSFNa1AV5M2KssNxJd-31" style="rounded=0;orthogonalLoop=1;jettySize=auto;html=1;entryX=0.75;entryY=0;entryDx=0;entryDy=0;" parent="1" source="hZkSFNa1AV5M2KssNxJd-25" target="63r6j5PNiwpvzs9c38wY-21" edge="1">
          <mxGeometry relative="1" as="geometry" />
        </mxCell>
        <mxCell id="hZkSFNa1AV5M2KssNxJd-25" value="GameDefaults" style="swimlane;fontStyle=0;childLayout=stackLayout;horizontal=1;startSize=26;fillColor=none;horizontalStack=0;resizeParent=1;resizeParentMax=0;resizeLast=0;collapsible=1;marginBottom=0;whiteSpace=wrap;html=1;" parent="1" vertex="1">
          <mxGeometry x="630" y="200" width="190" height="104" as="geometry" />
        </mxCell>
        <mxCell id="hZkSFNa1AV5M2KssNxJd-26" value="+ static int COLUMNS" style="text;strokeColor=none;fillColor=none;align=left;verticalAlign=top;spacingLeft=4;spacingRight=4;overflow=hidden;rotatable=0;points=[[0,0.5],[1,0.5]];portConstraint=eastwest;whiteSpace=wrap;html=1;" parent="hZkSFNa1AV5M2KssNxJd-25" vertex="1">
          <mxGeometry y="26" width="190" height="26" as="geometry" />
        </mxCell>
        <mxCell id="hZkSFNa1AV5M2KssNxJd-27" value="+ static int ROWS" style="text;strokeColor=none;fillColor=none;align=left;verticalAlign=top;spacingLeft=4;spacingRight=4;overflow=hidden;rotatable=0;points=[[0,0.5],[1,0.5]];portConstraint=eastwest;whiteSpace=wrap;html=1;" parent="hZkSFNa1AV5M2KssNxJd-25" vertex="1">
          <mxGeometry y="52" width="190" height="26" as="geometry" />
        </mxCell>
        <mxCell id="hZkSFNa1AV5M2KssNxJd-28" value="+ static double MINE_FRACTION" style="text;strokeColor=none;fillColor=none;align=left;verticalAlign=top;spacingLeft=4;spacingRight=4;overflow=hidden;rotatable=0;points=[[0,0.5],[1,0.5]];portConstraint=eastwest;whiteSpace=wrap;html=1;" parent="hZkSFNa1AV5M2KssNxJd-25" vertex="1">
          <mxGeometry y="78" width="190" height="26" as="geometry" />
        </mxCell>
      </root>
    </mxGraphModel>
  </diagram>
  <diagram id="QZs2X4V0JxY8wELTW97W" name="Gamestate Processing Flowchart">
    <mxGraphModel dx="1188" dy="688" grid="1" gridSize="10" guides="1" tooltips="1" connect="1" arrows="1" fold="1" page="1" pageScale="1" pageWidth="827" pageHeight="1169" math="0" shadow="0">
      <root>
        <mxCell id="0" />
        <mxCell id="1" parent="0" />
        <mxCell id="FXxxatwQ9b9M2J5Hbka9-4" style="edgeStyle=orthogonalEdgeStyle;rounded=0;orthogonalLoop=1;jettySize=auto;html=1;entryX=0.5;entryY=0;entryDx=0;entryDy=0;" edge="1" parent="1" source="FXxxatwQ9b9M2J5Hbka9-1" target="FXxxatwQ9b9M2J5Hbka9-2">
          <mxGeometry relative="1" as="geometry" />
        </mxCell>
        <mxCell id="FXxxatwQ9b9M2J5Hbka9-1" value="User clicks on&amp;nbsp;a minesweeper cell" style="rounded=0;whiteSpace=wrap;html=1;" vertex="1" parent="1">
          <mxGeometry x="340" y="20" width="120" height="60" as="geometry" />
        </mxCell>
        <mxCell id="FXxxatwQ9b9M2J5Hbka9-6" style="edgeStyle=orthogonalEdgeStyle;rounded=0;orthogonalLoop=1;jettySize=auto;html=1;exitX=0.5;exitY=1;exitDx=0;exitDy=0;entryX=0.5;entryY=0;entryDx=0;entryDy=0;" edge="1" parent="1" source="FXxxatwQ9b9M2J5Hbka9-2" target="FXxxatwQ9b9M2J5Hbka9-5">
          <mxGeometry relative="1" as="geometry" />
        </mxCell>
        <mxCell id="FXxxatwQ9b9M2J5Hbka9-2" value="MouseEvent is generated at Label" style="rounded=0;whiteSpace=wrap;html=1;" vertex="1" parent="1">
          <mxGeometry x="340" y="110" width="120" height="60" as="geometry" />
        </mxCell>
        <mxCell id="FXxxatwQ9b9M2J5Hbka9-8" value="False" style="edgeStyle=orthogonalEdgeStyle;rounded=0;orthogonalLoop=1;jettySize=auto;html=1;entryX=0.75;entryY=0;entryDx=0;entryDy=0;" edge="1" parent="1" source="FXxxatwQ9b9M2J5Hbka9-5" target="FXxxatwQ9b9M2J5Hbka9-23">
          <mxGeometry x="-0.9468" relative="1" as="geometry">
            <mxPoint x="580" y="280" as="targetPoint" />
            <mxPoint as="offset" />
          </mxGeometry>
        </mxCell>
        <mxCell id="FXxxatwQ9b9M2J5Hbka9-10" value="True" style="edgeStyle=orthogonalEdgeStyle;rounded=0;orthogonalLoop=1;jettySize=auto;html=1;exitX=0;exitY=0.5;exitDx=0;exitDy=0;entryX=0.5;entryY=0;entryDx=0;entryDy=0;" edge="1" parent="1" source="FXxxatwQ9b9M2J5Hbka9-5" target="FXxxatwQ9b9M2J5Hbka9-9">
          <mxGeometry x="-0.6469" relative="1" as="geometry">
            <Array as="points">
              <mxPoint x="179" y="250" />
            </Array>
            <mxPoint as="offset" />
          </mxGeometry>
        </mxCell>
        <mxCell id="FXxxatwQ9b9M2J5Hbka9-5" value="isStillSincePress()" style="rhombus;whiteSpace=wrap;html=1;" vertex="1" parent="1">
          <mxGeometry x="340" y="200" width="120" height="100" as="geometry" />
        </mxCell>
        <mxCell id="FXxxatwQ9b9M2J5Hbka9-12" style="edgeStyle=orthogonalEdgeStyle;rounded=0;orthogonalLoop=1;jettySize=auto;html=1;entryX=0.5;entryY=0;entryDx=0;entryDy=0;" edge="1" parent="1" source="FXxxatwQ9b9M2J5Hbka9-9" target="FXxxatwQ9b9M2J5Hbka9-11">
          <mxGeometry relative="1" as="geometry" />
        </mxCell>
        <mxCell id="FXxxatwQ9b9M2J5Hbka9-9" value="Fire GameCellInteractionEvent" style="rounded=0;whiteSpace=wrap;html=1;" vertex="1" parent="1">
          <mxGeometry x="89" y="270" width="180" height="60" as="geometry" />
        </mxCell>
        <mxCell id="FXxxatwQ9b9M2J5Hbka9-41" style="edgeStyle=orthogonalEdgeStyle;rounded=0;orthogonalLoop=1;jettySize=auto;html=1;exitX=1;exitY=0.5;exitDx=0;exitDy=0;entryX=0;entryY=0.5;entryDx=0;entryDy=0;" edge="1" parent="1" source="FXxxatwQ9b9M2J5Hbka9-11" target="FXxxatwQ9b9M2J5Hbka9-13">
          <mxGeometry relative="1" as="geometry" />
        </mxCell>
        <mxCell id="FXxxatwQ9b9M2J5Hbka9-11" value="GameContainer intercepts GCIE" style="rounded=0;whiteSpace=wrap;html=1;" vertex="1" parent="1">
          <mxGeometry x="104" y="350" width="150" height="60" as="geometry" />
        </mxCell>
        <mxCell id="FXxxatwQ9b9M2J5Hbka9-42" style="edgeStyle=orthogonalEdgeStyle;rounded=0;orthogonalLoop=1;jettySize=auto;html=1;exitX=1;exitY=0.5;exitDx=0;exitDy=0;entryX=0;entryY=0.5;entryDx=0;entryDy=0;" edge="1" parent="1" source="FXxxatwQ9b9M2J5Hbka9-13" target="FXxxatwQ9b9M2J5Hbka9-15">
          <mxGeometry relative="1" as="geometry" />
        </mxCell>
        <mxCell id="FXxxatwQ9b9M2J5Hbka9-13" value="GameContainer calls thisInteractionManager.handle(e)" style="rounded=0;whiteSpace=wrap;html=1;" vertex="1" parent="1">
          <mxGeometry x="309" y="350" width="190" height="60" as="geometry" />
        </mxCell>
        <mxCell id="FXxxatwQ9b9M2J5Hbka9-20" style="edgeStyle=orthogonalEdgeStyle;rounded=0;orthogonalLoop=1;jettySize=auto;html=1;exitX=0.5;exitY=1;exitDx=0;exitDy=0;entryX=0.5;entryY=0;entryDx=0;entryDy=0;" edge="1" parent="1" source="FXxxatwQ9b9M2J5Hbka9-15" target="FXxxatwQ9b9M2J5Hbka9-18">
          <mxGeometry relative="1" as="geometry">
            <mxPoint x="434" y="520" as="targetPoint" />
          </mxGeometry>
        </mxCell>
        <mxCell id="FXxxatwQ9b9M2J5Hbka9-15" value="GIM receives handle(e) call" style="rounded=0;whiteSpace=wrap;html=1;" vertex="1" parent="1">
          <mxGeometry x="554" y="350" width="120" height="60" as="geometry" />
        </mxCell>
        <mxCell id="FXxxatwQ9b9M2J5Hbka9-19" value="MouseButton.PRIMARY" style="edgeStyle=orthogonalEdgeStyle;rounded=0;orthogonalLoop=1;jettySize=auto;html=1;exitX=0;exitY=0.5;exitDx=0;exitDy=0;entryX=0.5;entryY=0;entryDx=0;entryDy=0;" edge="1" parent="1" source="FXxxatwQ9b9M2J5Hbka9-17" target="FXxxatwQ9b9M2J5Hbka9-43">
          <mxGeometry x="0.15" relative="1" as="geometry">
            <mxPoint x="204" y="620" as="targetPoint" />
            <mxPoint as="offset" />
          </mxGeometry>
        </mxCell>
        <mxCell id="FXxxatwQ9b9M2J5Hbka9-27" value="MouseButton.SECONDARY" style="edgeStyle=orthogonalEdgeStyle;rounded=0;orthogonalLoop=1;jettySize=auto;html=1;exitX=1;exitY=0.5;exitDx=0;exitDy=0;entryX=0;entryY=0.5;entryDx=0;entryDy=0;" edge="1" parent="1" source="FXxxatwQ9b9M2J5Hbka9-17" target="FXxxatwQ9b9M2J5Hbka9-40">
          <mxGeometry x="-0.194" relative="1" as="geometry">
            <mxPoint x="604" y="740" as="targetPoint" />
            <mxPoint as="offset" />
          </mxGeometry>
        </mxCell>
        <mxCell id="FXxxatwQ9b9M2J5Hbka9-17" value="Trigger button" style="rhombus;whiteSpace=wrap;html=1;" vertex="1" parent="1">
          <mxGeometry x="279" y="490" width="160" height="100" as="geometry" />
        </mxCell>
        <mxCell id="FXxxatwQ9b9M2J5Hbka9-38" value="True" style="edgeStyle=orthogonalEdgeStyle;rounded=0;orthogonalLoop=1;jettySize=auto;html=1;exitX=1;exitY=0.5;exitDx=0;exitDy=0;entryX=0.5;entryY=0;entryDx=0;entryDy=0;" edge="1" parent="1" source="FXxxatwQ9b9M2J5Hbka9-18" target="FXxxatwQ9b9M2J5Hbka9-23">
          <mxGeometry x="-0.9487" relative="1" as="geometry">
            <mxPoint as="offset" />
          </mxGeometry>
        </mxCell>
        <mxCell id="FXxxatwQ9b9M2J5Hbka9-39" value="False" style="edgeStyle=orthogonalEdgeStyle;rounded=0;orthogonalLoop=1;jettySize=auto;html=1;exitX=0;exitY=0.5;exitDx=0;exitDy=0;entryX=0.5;entryY=0;entryDx=0;entryDy=0;" edge="1" parent="1" source="FXxxatwQ9b9M2J5Hbka9-18" target="FXxxatwQ9b9M2J5Hbka9-17">
          <mxGeometry x="-0.6923" relative="1" as="geometry">
            <mxPoint as="offset" />
          </mxGeometry>
        </mxCell>
        <mxCell id="FXxxatwQ9b9M2J5Hbka9-18" value="Cell isRevealed" style="rhombus;whiteSpace=wrap;html=1;" vertex="1" parent="1">
          <mxGeometry x="544" y="430" width="140" height="80" as="geometry" />
        </mxCell>
        <mxCell id="FXxxatwQ9b9M2J5Hbka9-23" value="Finished processing" style="rounded=0;whiteSpace=wrap;html=1;" vertex="1" parent="1">
          <mxGeometry x="674" y="1050" width="120" height="60" as="geometry" />
        </mxCell>
        <mxCell id="FXxxatwQ9b9M2J5Hbka9-29" style="edgeStyle=orthogonalEdgeStyle;rounded=0;orthogonalLoop=1;jettySize=auto;html=1;exitX=0.5;exitY=1;exitDx=0;exitDy=0;entryX=0.25;entryY=0;entryDx=0;entryDy=0;" edge="1" parent="1" source="FXxxatwQ9b9M2J5Hbka9-40" target="FXxxatwQ9b9M2J5Hbka9-23">
          <mxGeometry relative="1" as="geometry">
            <mxPoint x="604" y="940" as="sourcePoint" />
            <Array as="points">
              <mxPoint x="704" y="560" />
            </Array>
          </mxGeometry>
        </mxCell>
        <mxCell id="FXxxatwQ9b9M2J5Hbka9-40" value="Toggle flag" style="rounded=0;whiteSpace=wrap;html=1;" vertex="1" parent="1">
          <mxGeometry x="640" y="520" width="80" height="40" as="geometry" />
        </mxCell>
        <mxCell id="FXxxatwQ9b9M2J5Hbka9-49" value="True" style="edgeStyle=orthogonalEdgeStyle;rounded=0;orthogonalLoop=1;jettySize=auto;html=1;exitX=0;exitY=0.5;exitDx=0;exitDy=0;entryX=0.5;entryY=1;entryDx=0;entryDy=0;" edge="1" parent="1" source="FXxxatwQ9b9M2J5Hbka9-43" target="FXxxatwQ9b9M2J5Hbka9-23">
          <mxGeometry x="-0.9661" relative="1" as="geometry">
            <Array as="points">
              <mxPoint x="34" y="625" />
              <mxPoint x="34" y="1140" />
              <mxPoint x="734" y="1140" />
            </Array>
            <mxPoint as="offset" />
          </mxGeometry>
        </mxCell>
        <mxCell id="FXxxatwQ9b9M2J5Hbka9-51" value="False" style="edgeStyle=orthogonalEdgeStyle;rounded=0;orthogonalLoop=1;jettySize=auto;html=1;exitX=1;exitY=0.5;exitDx=0;exitDy=0;entryX=0;entryY=0.5;entryDx=0;entryDy=0;" edge="1" parent="1" source="FXxxatwQ9b9M2J5Hbka9-43" target="FXxxatwQ9b9M2J5Hbka9-54">
          <mxGeometry x="-0.8272" relative="1" as="geometry">
            <mxPoint x="350" y="660" as="targetPoint" />
            <mxPoint as="offset" />
          </mxGeometry>
        </mxCell>
        <mxCell id="FXxxatwQ9b9M2J5Hbka9-43" value="Cell isFlagged" style="rhombus;whiteSpace=wrap;html=1;" vertex="1" parent="1">
          <mxGeometry x="154" y="585" width="100" height="80" as="geometry" />
        </mxCell>
        <mxCell id="FXxxatwQ9b9M2J5Hbka9-47" style="edgeStyle=orthogonalEdgeStyle;rounded=0;orthogonalLoop=1;jettySize=auto;html=1;exitX=0.5;exitY=1;exitDx=0;exitDy=0;entryX=0.5;entryY=0;entryDx=0;entryDy=0;" edge="1" parent="1" source="FXxxatwQ9b9M2J5Hbka9-44" target="FXxxatwQ9b9M2J5Hbka9-45">
          <mxGeometry relative="1" as="geometry" />
        </mxCell>
        <mxCell id="FXxxatwQ9b9M2J5Hbka9-44" value="Game is lost" style="rounded=0;whiteSpace=wrap;html=1;" vertex="1" parent="1">
          <mxGeometry x="554" y="800" width="120" height="60" as="geometry" />
        </mxCell>
        <mxCell id="FXxxatwQ9b9M2J5Hbka9-48" style="edgeStyle=orthogonalEdgeStyle;rounded=0;orthogonalLoop=1;jettySize=auto;html=1;exitX=0.5;exitY=1;exitDx=0;exitDy=0;entryX=0;entryY=0.25;entryDx=0;entryDy=0;" edge="1" parent="1" source="FXxxatwQ9b9M2J5Hbka9-45" target="FXxxatwQ9b9M2J5Hbka9-23">
          <mxGeometry relative="1" as="geometry" />
        </mxCell>
        <mxCell id="FXxxatwQ9b9M2J5Hbka9-45" value="Popup / options" style="rounded=0;whiteSpace=wrap;html=1;" vertex="1" parent="1">
          <mxGeometry x="554" y="895" width="120" height="60" as="geometry" />
        </mxCell>
        <mxCell id="FXxxatwQ9b9M2J5Hbka9-52" value="True" style="edgeStyle=orthogonalEdgeStyle;rounded=0;orthogonalLoop=1;jettySize=auto;html=1;exitX=1;exitY=0.5;exitDx=0;exitDy=0;entryX=0.5;entryY=0;entryDx=0;entryDy=0;" edge="1" parent="1" source="FXxxatwQ9b9M2J5Hbka9-50" target="FXxxatwQ9b9M2J5Hbka9-44">
          <mxGeometry x="-0.7674" relative="1" as="geometry">
            <mxPoint as="offset" />
          </mxGeometry>
        </mxCell>
        <mxCell id="FXxxatwQ9b9M2J5Hbka9-55" value="False" style="edgeStyle=orthogonalEdgeStyle;rounded=0;orthogonalLoop=1;jettySize=auto;html=1;exitX=0;exitY=0.5;exitDx=0;exitDy=0;entryX=0.5;entryY=0;entryDx=0;entryDy=0;" edge="1" parent="1" source="FXxxatwQ9b9M2J5Hbka9-50" target="FXxxatwQ9b9M2J5Hbka9-56">
          <mxGeometry x="-0.8261" relative="1" as="geometry">
            <mxPoint x="410" y="760" as="targetPoint" />
            <mxPoint as="offset" />
          </mxGeometry>
        </mxCell>
        <mxCell id="FXxxatwQ9b9M2J5Hbka9-50" value="Cell isMine" style="rhombus;whiteSpace=wrap;html=1;" vertex="1" parent="1">
          <mxGeometry x="420" y="690" width="80" height="80" as="geometry" />
        </mxCell>
        <mxCell id="FXxxatwQ9b9M2J5Hbka9-70" style="edgeStyle=orthogonalEdgeStyle;rounded=0;orthogonalLoop=1;jettySize=auto;html=1;exitX=0.5;exitY=1;exitDx=0;exitDy=0;entryX=0.5;entryY=0;entryDx=0;entryDy=0;" edge="1" parent="1" source="FXxxatwQ9b9M2J5Hbka9-54" target="FXxxatwQ9b9M2J5Hbka9-50">
          <mxGeometry relative="1" as="geometry" />
        </mxCell>
        <mxCell id="FXxxatwQ9b9M2J5Hbka9-54" value="Reveal cell" style="rounded=0;whiteSpace=wrap;html=1;" vertex="1" parent="1">
          <mxGeometry x="400" y="595" width="120" height="60" as="geometry" />
        </mxCell>
        <mxCell id="FXxxatwQ9b9M2J5Hbka9-62" value="True" style="edgeStyle=orthogonalEdgeStyle;rounded=0;orthogonalLoop=1;jettySize=auto;html=1;exitX=0;exitY=0.5;exitDx=0;exitDy=0;entryX=0.5;entryY=0;entryDx=0;entryDy=0;" edge="1" parent="1" source="FXxxatwQ9b9M2J5Hbka9-56" target="FXxxatwQ9b9M2J5Hbka9-58">
          <mxGeometry x="-0.7143" relative="1" as="geometry">
            <mxPoint x="144" y="945" as="targetPoint" />
            <mxPoint as="offset" />
          </mxGeometry>
        </mxCell>
        <mxCell id="FXxxatwQ9b9M2J5Hbka9-64" value="False" style="edgeStyle=orthogonalEdgeStyle;rounded=0;orthogonalLoop=1;jettySize=auto;html=1;exitX=1;exitY=0.5;exitDx=0;exitDy=0;entryX=0.5;entryY=0;entryDx=0;entryDy=0;" edge="1" parent="1" source="FXxxatwQ9b9M2J5Hbka9-56" target="FXxxatwQ9b9M2J5Hbka9-63">
          <mxGeometry x="-0.7143" relative="1" as="geometry">
            <mxPoint as="offset" />
          </mxGeometry>
        </mxCell>
        <mxCell id="FXxxatwQ9b9M2J5Hbka9-56" value="Unrevealed cells &amp;lt;= number of mines on board" style="rhombus;whiteSpace=wrap;html=1;" vertex="1" parent="1">
          <mxGeometry x="210" y="810" width="140" height="80" as="geometry" />
        </mxCell>
        <mxCell id="FXxxatwQ9b9M2J5Hbka9-61" style="edgeStyle=orthogonalEdgeStyle;rounded=0;orthogonalLoop=1;jettySize=auto;html=1;exitX=0.5;exitY=1;exitDx=0;exitDy=0;entryX=0.5;entryY=0;entryDx=0;entryDy=0;" edge="1" parent="1" source="FXxxatwQ9b9M2J5Hbka9-58" target="FXxxatwQ9b9M2J5Hbka9-59">
          <mxGeometry relative="1" as="geometry" />
        </mxCell>
        <mxCell id="FXxxatwQ9b9M2J5Hbka9-58" value="Game is won" style="rounded=0;whiteSpace=wrap;html=1;" vertex="1" parent="1">
          <mxGeometry x="90" y="930" width="120" height="60" as="geometry" />
        </mxCell>
        <mxCell id="FXxxatwQ9b9M2J5Hbka9-67" style="edgeStyle=orthogonalEdgeStyle;rounded=0;orthogonalLoop=1;jettySize=auto;html=1;exitX=0.5;exitY=1;exitDx=0;exitDy=0;entryX=0.25;entryY=1;entryDx=0;entryDy=0;" edge="1" parent="1" source="FXxxatwQ9b9M2J5Hbka9-59" target="FXxxatwQ9b9M2J5Hbka9-23">
          <mxGeometry relative="1" as="geometry" />
        </mxCell>
        <mxCell id="FXxxatwQ9b9M2J5Hbka9-59" value="Popup / options" style="rounded=0;whiteSpace=wrap;html=1;" vertex="1" parent="1">
          <mxGeometry x="90" y="1025" width="120" height="60" as="geometry" />
        </mxCell>
        <mxCell id="FXxxatwQ9b9M2J5Hbka9-66" value="True" style="edgeStyle=orthogonalEdgeStyle;rounded=0;orthogonalLoop=1;jettySize=auto;html=1;exitX=0;exitY=0.5;exitDx=0;exitDy=0;entryX=0.5;entryY=0;entryDx=0;entryDy=0;" edge="1" parent="1" source="FXxxatwQ9b9M2J5Hbka9-63" target="FXxxatwQ9b9M2J5Hbka9-65">
          <mxGeometry x="-0.6098" relative="1" as="geometry">
            <mxPoint as="offset" />
          </mxGeometry>
        </mxCell>
        <mxCell id="FXxxatwQ9b9M2J5Hbka9-69" value="False" style="edgeStyle=orthogonalEdgeStyle;rounded=0;orthogonalLoop=1;jettySize=auto;html=1;exitX=1;exitY=0.5;exitDx=0;exitDy=0;entryX=0;entryY=0.5;entryDx=0;entryDy=0;" edge="1" parent="1" source="FXxxatwQ9b9M2J5Hbka9-63" target="FXxxatwQ9b9M2J5Hbka9-23">
          <mxGeometry x="-0.8824" relative="1" as="geometry">
            <Array as="points">
              <mxPoint x="540" y="940" />
              <mxPoint x="540" y="1080" />
            </Array>
            <mxPoint as="offset" />
          </mxGeometry>
        </mxCell>
        <mxCell id="FXxxatwQ9b9M2J5Hbka9-63" value="Cell nearby mines = 0" style="rhombus;whiteSpace=wrap;html=1;" vertex="1" parent="1">
          <mxGeometry x="400" y="900" width="80" height="80" as="geometry" />
        </mxCell>
        <mxCell id="FXxxatwQ9b9M2J5Hbka9-68" style="edgeStyle=orthogonalEdgeStyle;rounded=0;orthogonalLoop=1;jettySize=auto;html=1;exitX=0.5;exitY=1;exitDx=0;exitDy=0;entryX=0;entryY=0.75;entryDx=0;entryDy=0;" edge="1" parent="1" source="FXxxatwQ9b9M2J5Hbka9-65" target="FXxxatwQ9b9M2J5Hbka9-23">
          <mxGeometry relative="1" as="geometry" />
        </mxCell>
        <mxCell id="FXxxatwQ9b9M2J5Hbka9-65" value="Waterfall reveal" style="rounded=0;whiteSpace=wrap;html=1;" vertex="1" parent="1">
          <mxGeometry x="300" y="980" width="75" height="60" as="geometry" />
        </mxCell>
      </root>
    </mxGraphModel>
  </diagram>
</mxfile>
